<mxfile host="app.diagrams.net" modified="2024-06-17T20:38:14.001Z" agent="Mozilla/5.0 (Windows NT 10.0; Win64; x64) AppleWebKit/537.36 (KHTML, like Gecko) Chrome/125.0.0.0 Safari/537.36" etag="JaAyw4M2XQPqO7dBoULs" version="24.5.5" type="github">
  <diagram name="Page-1" id="2a216829-ef6e-dabb-86c1-c78162f3ba2b">
    <mxGraphModel dx="1120" dy="434" grid="1" gridSize="10" guides="1" tooltips="1" connect="1" arrows="1" fold="1" page="1" pageScale="1" pageWidth="850" pageHeight="1100" background="none" math="0" shadow="0">
      <root>
        <mxCell id="0" />
        <mxCell id="1" parent="0" />
        <mxCell id="7a84cebc1def654-1" value="" style="shape=mxgraph.bpmn.shape;html=1;verticalLabelPosition=bottom;labelBackgroundColor=#ffffff;verticalAlign=top;perimeter=ellipsePerimeter;outline=standard;symbol=general;fillColor=#d5e8d4;strokeColor=#82b366;" parent="1" vertex="1">
          <mxGeometry x="260" y="265" width="50" height="50" as="geometry" />
        </mxCell>
        <mxCell id="7a84cebc1def654-2" value="Выбрать вещи на&lt;div&gt;текущий сезон&lt;/div&gt;" style="shape=ext;rounded=1;html=1;whiteSpace=wrap;" parent="1" vertex="1">
          <mxGeometry x="360" y="250" width="120" height="80" as="geometry" />
        </mxCell>
        <mxCell id="cn0XzDHTwLfW3axUnCjo-141" style="edgeStyle=orthogonalEdgeStyle;rounded=0;orthogonalLoop=1;jettySize=auto;html=1;exitX=1;exitY=0.5;exitDx=0;exitDy=0;entryX=0.5;entryY=0;entryDx=0;entryDy=0;" edge="1" parent="1" source="7a84cebc1def654-3" target="cn0XzDHTwLfW3axUnCjo-40">
          <mxGeometry relative="1" as="geometry" />
        </mxCell>
        <mxCell id="7a84cebc1def654-3" value="Пуховик" style="shape=ext;rounded=1;html=1;whiteSpace=wrap;" parent="1" vertex="1">
          <mxGeometry x="685" y="180" width="60" height="30" as="geometry" />
        </mxCell>
        <mxCell id="7a84cebc1def654-36" style="edgeStyle=orthogonalEdgeStyle;rounded=0;html=1;jettySize=auto;orthogonalLoop=1;" parent="1" source="7a84cebc1def654-1" target="7a84cebc1def654-2" edge="1">
          <mxGeometry relative="1" as="geometry" />
        </mxCell>
        <mxCell id="cn0XzDHTwLfW3axUnCjo-1" value="На Ozon началась&amp;nbsp;&lt;div&gt;распродажа&amp;nbsp;&lt;/div&gt;" style="text;html=1;align=center;verticalAlign=middle;resizable=0;points=[];autosize=1;strokeColor=none;fillColor=none;" vertex="1" parent="1">
          <mxGeometry x="200" y="225" width="130" height="40" as="geometry" />
        </mxCell>
        <mxCell id="cn0XzDHTwLfW3axUnCjo-8" value="" style="edgeStyle=orthogonalEdgeStyle;rounded=0;html=1;jettySize=auto;orthogonalLoop=1;" edge="1" parent="1" source="7a84cebc1def654-2">
          <mxGeometry relative="1" as="geometry">
            <mxPoint x="480" y="290" as="sourcePoint" />
            <mxPoint x="530" y="290" as="targetPoint" />
          </mxGeometry>
        </mxCell>
        <mxCell id="cn0XzDHTwLfW3axUnCjo-134" style="edgeStyle=orthogonalEdgeStyle;rounded=0;orthogonalLoop=1;jettySize=auto;html=1;exitX=1;exitY=1;exitDx=0;exitDy=0;entryX=0;entryY=0.5;entryDx=0;entryDy=0;" edge="1" parent="1" source="cn0XzDHTwLfW3axUnCjo-11" target="cn0XzDHTwLfW3axUnCjo-22">
          <mxGeometry relative="1" as="geometry">
            <Array as="points">
              <mxPoint x="568" y="330" />
            </Array>
          </mxGeometry>
        </mxCell>
        <mxCell id="cn0XzDHTwLfW3axUnCjo-136" style="edgeStyle=orthogonalEdgeStyle;rounded=0;orthogonalLoop=1;jettySize=auto;html=1;exitX=1;exitY=0;exitDx=0;exitDy=0;entryX=0;entryY=0.5;entryDx=0;entryDy=0;" edge="1" parent="1" source="cn0XzDHTwLfW3axUnCjo-11" target="cn0XzDHTwLfW3axUnCjo-19">
          <mxGeometry relative="1" as="geometry">
            <Array as="points">
              <mxPoint x="568" y="250" />
              <mxPoint x="675" y="250" />
            </Array>
          </mxGeometry>
        </mxCell>
        <mxCell id="cn0XzDHTwLfW3axUnCjo-137" style="edgeStyle=orthogonalEdgeStyle;rounded=0;orthogonalLoop=1;jettySize=auto;html=1;exitX=0.5;exitY=0;exitDx=0;exitDy=0;entryX=0;entryY=0.5;entryDx=0;entryDy=0;" edge="1" parent="1" source="cn0XzDHTwLfW3axUnCjo-11" target="7a84cebc1def654-3">
          <mxGeometry relative="1" as="geometry" />
        </mxCell>
        <mxCell id="cn0XzDHTwLfW3axUnCjo-139" style="edgeStyle=orthogonalEdgeStyle;rounded=0;orthogonalLoop=1;jettySize=auto;html=1;exitX=0.5;exitY=1;exitDx=0;exitDy=0;entryX=0;entryY=0.5;entryDx=0;entryDy=0;" edge="1" parent="1" source="cn0XzDHTwLfW3axUnCjo-11" target="cn0XzDHTwLfW3axUnCjo-24">
          <mxGeometry relative="1" as="geometry" />
        </mxCell>
        <mxCell id="cn0XzDHTwLfW3axUnCjo-11" value="" style="rhombus;whiteSpace=wrap;html=1;" vertex="1" parent="1">
          <mxGeometry x="530" y="265" width="50" height="50" as="geometry" />
        </mxCell>
        <mxCell id="cn0XzDHTwLfW3axUnCjo-10" value="" style="endArrow=none;html=1;rounded=0;entryX=1;entryY=0;entryDx=0;entryDy=0;exitX=0;exitY=1;exitDx=0;exitDy=0;strokeWidth=5;elbow=vertical;movable=1;resizable=1;rotatable=1;deletable=1;editable=1;locked=0;connectable=1;" edge="1" parent="1" source="cn0XzDHTwLfW3axUnCjo-11" target="cn0XzDHTwLfW3axUnCjo-11">
          <mxGeometry width="50" height="50" relative="1" as="geometry">
            <mxPoint x="680" y="310" as="sourcePoint" />
            <mxPoint x="710" y="280" as="targetPoint" />
          </mxGeometry>
        </mxCell>
        <mxCell id="cn0XzDHTwLfW3axUnCjo-13" value="" style="endArrow=none;html=1;rounded=0;entryX=1;entryY=0;entryDx=0;entryDy=0;exitX=0;exitY=1;exitDx=0;exitDy=0;strokeWidth=5;movable=1;resizable=1;rotatable=1;deletable=1;editable=1;locked=0;connectable=1;" edge="1" parent="1">
          <mxGeometry width="50" height="50" relative="1" as="geometry">
            <mxPoint x="542.5" y="277.5" as="sourcePoint" />
            <mxPoint x="567.5" y="302.5" as="targetPoint" />
          </mxGeometry>
        </mxCell>
        <mxCell id="cn0XzDHTwLfW3axUnCjo-142" style="edgeStyle=orthogonalEdgeStyle;rounded=0;orthogonalLoop=1;jettySize=auto;html=1;exitX=1;exitY=0.5;exitDx=0;exitDy=0;entryX=0;entryY=0;entryDx=0;entryDy=0;" edge="1" parent="1" source="cn0XzDHTwLfW3axUnCjo-19" target="cn0XzDHTwLfW3axUnCjo-40">
          <mxGeometry relative="1" as="geometry" />
        </mxCell>
        <mxCell id="cn0XzDHTwLfW3axUnCjo-19" value="Джинсовка" style="shape=ext;rounded=1;html=1;whiteSpace=wrap;" vertex="1" parent="1">
          <mxGeometry x="680" y="235" width="70" height="30" as="geometry" />
        </mxCell>
        <mxCell id="cn0XzDHTwLfW3axUnCjo-144" style="edgeStyle=orthogonalEdgeStyle;rounded=0;orthogonalLoop=1;jettySize=auto;html=1;exitX=1;exitY=0.5;exitDx=0;exitDy=0;" edge="1" parent="1" source="cn0XzDHTwLfW3axUnCjo-22">
          <mxGeometry relative="1" as="geometry">
            <mxPoint x="880" y="300" as="targetPoint" />
            <Array as="points">
              <mxPoint x="810" y="330" />
              <mxPoint x="810" y="300" />
            </Array>
          </mxGeometry>
        </mxCell>
        <mxCell id="cn0XzDHTwLfW3axUnCjo-22" value="Платье" style="shape=ext;rounded=1;html=1;whiteSpace=wrap;" vertex="1" parent="1">
          <mxGeometry x="680" y="315" width="70" height="30" as="geometry" />
        </mxCell>
        <mxCell id="cn0XzDHTwLfW3axUnCjo-24" value="Пальто" style="shape=ext;rounded=1;html=1;whiteSpace=wrap;" vertex="1" parent="1">
          <mxGeometry x="680" y="375" width="70" height="30" as="geometry" />
        </mxCell>
        <mxCell id="cn0XzDHTwLfW3axUnCjo-26" value="Зима" style="text;html=1;align=center;verticalAlign=middle;whiteSpace=wrap;rounded=0;" vertex="1" parent="1">
          <mxGeometry x="590" y="160" width="60" height="30" as="geometry" />
        </mxCell>
        <mxCell id="cn0XzDHTwLfW3axUnCjo-27" value="Весна" style="text;html=1;align=center;verticalAlign=middle;whiteSpace=wrap;rounded=0;" vertex="1" parent="1">
          <mxGeometry x="590" y="225" width="60" height="30" as="geometry" />
        </mxCell>
        <mxCell id="cn0XzDHTwLfW3axUnCjo-30" value="Лето" style="text;html=1;align=center;verticalAlign=middle;whiteSpace=wrap;rounded=0;" vertex="1" parent="1">
          <mxGeometry x="590" y="300" width="60" height="30" as="geometry" />
        </mxCell>
        <mxCell id="cn0XzDHTwLfW3axUnCjo-31" value="Осень" style="text;html=1;align=center;verticalAlign=middle;whiteSpace=wrap;rounded=0;" vertex="1" parent="1">
          <mxGeometry x="590" y="360" width="60" height="30" as="geometry" />
        </mxCell>
        <mxCell id="cn0XzDHTwLfW3axUnCjo-34" value="" style="edgeStyle=orthogonalEdgeStyle;rounded=0;orthogonalLoop=1;jettySize=auto;html=1;entryX=0.5;entryY=1;entryDx=0;entryDy=0;" edge="1" parent="1" target="cn0XzDHTwLfW3axUnCjo-40">
          <mxGeometry relative="1" as="geometry">
            <mxPoint x="750" y="390" as="sourcePoint" />
            <mxPoint x="860" y="370" as="targetPoint" />
            <Array as="points">
              <mxPoint x="895" y="390" />
            </Array>
          </mxGeometry>
        </mxCell>
        <mxCell id="cn0XzDHTwLfW3axUnCjo-146" style="edgeStyle=orthogonalEdgeStyle;rounded=0;orthogonalLoop=1;jettySize=auto;html=1;exitX=1;exitY=0.5;exitDx=0;exitDy=0;entryX=0;entryY=0.5;entryDx=0;entryDy=0;" edge="1" parent="1" source="cn0XzDHTwLfW3axUnCjo-40" target="cn0XzDHTwLfW3axUnCjo-47">
          <mxGeometry relative="1" as="geometry">
            <mxPoint x="960" y="290" as="targetPoint" />
          </mxGeometry>
        </mxCell>
        <mxCell id="cn0XzDHTwLfW3axUnCjo-40" value="" style="rhombus;whiteSpace=wrap;html=1;" vertex="1" parent="1">
          <mxGeometry x="870" y="265" width="50" height="50" as="geometry" />
        </mxCell>
        <mxCell id="cn0XzDHTwLfW3axUnCjo-41" value="" style="endArrow=none;html=1;rounded=0;entryX=1;entryY=0;entryDx=0;entryDy=0;exitX=0;exitY=1;exitDx=0;exitDy=0;strokeWidth=5;elbow=vertical;movable=0;resizable=0;rotatable=0;deletable=0;editable=0;locked=1;connectable=0;" edge="1" parent="1" source="cn0XzDHTwLfW3axUnCjo-40" target="cn0XzDHTwLfW3axUnCjo-40">
          <mxGeometry width="50" height="50" relative="1" as="geometry">
            <mxPoint x="1070" y="375" as="sourcePoint" />
            <mxPoint x="1100" y="345" as="targetPoint" />
          </mxGeometry>
        </mxCell>
        <mxCell id="cn0XzDHTwLfW3axUnCjo-42" value="" style="endArrow=none;html=1;rounded=0;entryX=1;entryY=0;entryDx=0;entryDy=0;exitX=0;exitY=1;exitDx=0;exitDy=0;strokeWidth=5;movable=1;resizable=1;rotatable=1;deletable=1;editable=1;locked=0;connectable=1;" edge="1" parent="1">
          <mxGeometry width="50" height="50" relative="1" as="geometry">
            <mxPoint x="882.5" y="277.5" as="sourcePoint" />
            <mxPoint x="907.5" y="302.5" as="targetPoint" />
          </mxGeometry>
        </mxCell>
        <mxCell id="cn0XzDHTwLfW3axUnCjo-145" style="edgeStyle=orthogonalEdgeStyle;rounded=0;orthogonalLoop=1;jettySize=auto;html=1;exitX=0.5;exitY=1;exitDx=0;exitDy=0;" edge="1" parent="1" source="cn0XzDHTwLfW3axUnCjo-47" target="cn0XzDHTwLfW3axUnCjo-49">
          <mxGeometry relative="1" as="geometry" />
        </mxCell>
        <mxCell id="cn0XzDHTwLfW3axUnCjo-47" value="Добавить товар в корзину" style="shape=ext;rounded=1;html=1;whiteSpace=wrap;" vertex="1" parent="1">
          <mxGeometry x="962.5" y="270" width="110" height="40" as="geometry" />
        </mxCell>
        <mxCell id="cn0XzDHTwLfW3axUnCjo-148" style="edgeStyle=orthogonalEdgeStyle;rounded=0;orthogonalLoop=1;jettySize=auto;html=1;exitX=0.5;exitY=1;exitDx=0;exitDy=0;entryX=0.5;entryY=0;entryDx=0;entryDy=0;" edge="1" parent="1" source="cn0XzDHTwLfW3axUnCjo-49" target="cn0XzDHTwLfW3axUnCjo-50">
          <mxGeometry relative="1" as="geometry" />
        </mxCell>
        <mxCell id="cn0XzDHTwLfW3axUnCjo-49" value="Оформить заказ" style="shape=ext;rounded=1;html=1;whiteSpace=wrap;" vertex="1" parent="1">
          <mxGeometry x="967.5" y="345" width="100" height="30" as="geometry" />
        </mxCell>
        <mxCell id="cn0XzDHTwLfW3axUnCjo-50" value="" style="shape=mxgraph.bpmn.shape;html=1;verticalLabelPosition=bottom;labelBackgroundColor=#ffffff;verticalAlign=top;perimeter=rhombusPerimeter;background=gateway;outline=none;symbol=parallelGw;" vertex="1" parent="1">
          <mxGeometry x="997.5" y="395" width="50" height="50" as="geometry" />
        </mxCell>
        <mxCell id="cn0XzDHTwLfW3axUnCjo-86" value="Выбрать способ получения" style="shape=ext;rounded=1;html=1;whiteSpace=wrap;" vertex="1" parent="1">
          <mxGeometry x="877.5" y="476.25" width="100" height="30" as="geometry" />
        </mxCell>
        <mxCell id="cn0XzDHTwLfW3axUnCjo-87" value="Выбрать способ оплаты" style="shape=ext;rounded=1;html=1;whiteSpace=wrap;" vertex="1" parent="1">
          <mxGeometry x="1077.5" y="476.25" width="100" height="30" as="geometry" />
        </mxCell>
        <mxCell id="cn0XzDHTwLfW3axUnCjo-88" value="" style="edgeStyle=orthogonalEdgeStyle;rounded=0;html=1;jettySize=auto;orthogonalLoop=1;exitX=0.75;exitY=0.75;exitDx=0;exitDy=0;exitPerimeter=0;entryX=0.5;entryY=0;entryDx=0;entryDy=0;" edge="1" parent="1" source="cn0XzDHTwLfW3axUnCjo-50" target="cn0XzDHTwLfW3axUnCjo-87">
          <mxGeometry relative="1" as="geometry">
            <mxPoint x="1037.5" y="435" as="sourcePoint" />
            <mxPoint x="1082.5" y="475" as="targetPoint" />
            <Array as="points">
              <mxPoint x="1035.5" y="435" />
              <mxPoint x="1127.5" y="435" />
            </Array>
          </mxGeometry>
        </mxCell>
        <mxCell id="cn0XzDHTwLfW3axUnCjo-89" value="" style="edgeStyle=orthogonalEdgeStyle;rounded=0;html=1;jettySize=auto;orthogonalLoop=1;exitX=0.25;exitY=0.75;exitDx=0;exitDy=0;exitPerimeter=0;" edge="1" parent="1" source="cn0XzDHTwLfW3axUnCjo-50">
          <mxGeometry relative="1" as="geometry">
            <mxPoint x="975" y="433.75" as="sourcePoint" />
            <mxPoint x="922.5" y="476.25" as="targetPoint" />
            <Array as="points">
              <mxPoint x="1010.5" y="434" />
              <mxPoint x="922.5" y="434" />
            </Array>
          </mxGeometry>
        </mxCell>
        <mxCell id="cn0XzDHTwLfW3axUnCjo-104" style="edgeStyle=orthogonalEdgeStyle;rounded=0;orthogonalLoop=1;jettySize=auto;html=1;exitX=0;exitY=1;exitDx=0;exitDy=0;entryX=0.5;entryY=0;entryDx=0;entryDy=0;" edge="1" parent="1" source="cn0XzDHTwLfW3axUnCjo-90" target="cn0XzDHTwLfW3axUnCjo-101">
          <mxGeometry relative="1" as="geometry">
            <Array as="points">
              <mxPoint x="915.5" y="576.25" />
              <mxPoint x="867.5" y="576.25" />
            </Array>
          </mxGeometry>
        </mxCell>
        <mxCell id="cn0XzDHTwLfW3axUnCjo-106" style="edgeStyle=orthogonalEdgeStyle;rounded=0;orthogonalLoop=1;jettySize=auto;html=1;exitX=1;exitY=1;exitDx=0;exitDy=0;entryX=0.5;entryY=0;entryDx=0;entryDy=0;" edge="1" parent="1" source="cn0XzDHTwLfW3axUnCjo-90" target="cn0XzDHTwLfW3axUnCjo-105">
          <mxGeometry relative="1" as="geometry" />
        </mxCell>
        <mxCell id="cn0XzDHTwLfW3axUnCjo-90" value="" style="rhombus;whiteSpace=wrap;html=1;" vertex="1" parent="1">
          <mxGeometry x="902.5" y="536.25" width="50" height="50" as="geometry" />
        </mxCell>
        <mxCell id="cn0XzDHTwLfW3axUnCjo-91" value="" style="endArrow=none;html=1;rounded=0;entryX=1;entryY=0;entryDx=0;entryDy=0;exitX=0;exitY=1;exitDx=0;exitDy=0;strokeWidth=5;elbow=vertical;" edge="1" source="cn0XzDHTwLfW3axUnCjo-90" target="cn0XzDHTwLfW3axUnCjo-90" parent="1">
          <mxGeometry width="50" height="50" relative="1" as="geometry">
            <mxPoint x="892.5" y="581.25" as="sourcePoint" />
            <mxPoint x="922.5" y="551.25" as="targetPoint" />
          </mxGeometry>
        </mxCell>
        <mxCell id="cn0XzDHTwLfW3axUnCjo-92" value="" style="endArrow=none;html=1;rounded=0;entryX=1;entryY=0;entryDx=0;entryDy=0;exitX=0;exitY=1;exitDx=0;exitDy=0;strokeWidth=5;" edge="1" parent="1">
          <mxGeometry width="50" height="50" relative="1" as="geometry">
            <mxPoint x="915" y="548.75" as="sourcePoint" />
            <mxPoint x="940" y="573.75" as="targetPoint" />
          </mxGeometry>
        </mxCell>
        <mxCell id="cn0XzDHTwLfW3axUnCjo-96" value="" style="edgeStyle=orthogonalEdgeStyle;rounded=0;html=1;jettySize=auto;orthogonalLoop=1;entryX=0.5;entryY=0;entryDx=0;entryDy=0;" edge="1" parent="1" target="cn0XzDHTwLfW3axUnCjo-90">
          <mxGeometry relative="1" as="geometry">
            <mxPoint x="927" y="506.25" as="sourcePoint" />
            <mxPoint x="927" y="531.25" as="targetPoint" />
          </mxGeometry>
        </mxCell>
        <mxCell id="cn0XzDHTwLfW3axUnCjo-117" style="edgeStyle=orthogonalEdgeStyle;rounded=0;orthogonalLoop=1;jettySize=auto;html=1;entryX=0.5;entryY=0;entryDx=0;entryDy=0;" edge="1" parent="1" target="cn0XzDHTwLfW3axUnCjo-115">
          <mxGeometry relative="1" as="geometry">
            <mxPoint x="1125.5" y="566.25" as="sourcePoint" />
            <Array as="points">
              <mxPoint x="1125.5" y="576.25" />
              <mxPoint x="1077.5" y="576.25" />
            </Array>
          </mxGeometry>
        </mxCell>
        <mxCell id="cn0XzDHTwLfW3axUnCjo-118" style="edgeStyle=orthogonalEdgeStyle;rounded=0;orthogonalLoop=1;jettySize=auto;html=1;exitX=1;exitY=1;exitDx=0;exitDy=0;entryX=0.5;entryY=0;entryDx=0;entryDy=0;" edge="1" parent="1" source="cn0XzDHTwLfW3axUnCjo-97" target="cn0XzDHTwLfW3axUnCjo-116">
          <mxGeometry relative="1" as="geometry" />
        </mxCell>
        <mxCell id="cn0XzDHTwLfW3axUnCjo-97" value="" style="rhombus;whiteSpace=wrap;html=1;" vertex="1" parent="1">
          <mxGeometry x="1112.5" y="536.25" width="50" height="50" as="geometry" />
        </mxCell>
        <mxCell id="cn0XzDHTwLfW3axUnCjo-98" value="" style="endArrow=none;html=1;rounded=0;entryX=1;entryY=0;entryDx=0;entryDy=0;exitX=0;exitY=1;exitDx=0;exitDy=0;strokeWidth=5;elbow=vertical;" edge="1" parent="1" source="cn0XzDHTwLfW3axUnCjo-97" target="cn0XzDHTwLfW3axUnCjo-97">
          <mxGeometry width="50" height="50" relative="1" as="geometry">
            <mxPoint x="1102.5" y="581.25" as="sourcePoint" />
            <mxPoint x="1132.5" y="551.25" as="targetPoint" />
          </mxGeometry>
        </mxCell>
        <mxCell id="cn0XzDHTwLfW3axUnCjo-99" value="" style="endArrow=none;html=1;rounded=0;entryX=1;entryY=0;entryDx=0;entryDy=0;exitX=0;exitY=1;exitDx=0;exitDy=0;strokeWidth=5;" edge="1" parent="1">
          <mxGeometry width="50" height="50" relative="1" as="geometry">
            <mxPoint x="1125" y="548.75" as="sourcePoint" />
            <mxPoint x="1150" y="573.75" as="targetPoint" />
          </mxGeometry>
        </mxCell>
        <mxCell id="cn0XzDHTwLfW3axUnCjo-100" value="" style="edgeStyle=orthogonalEdgeStyle;rounded=0;html=1;jettySize=auto;orthogonalLoop=1;entryX=0.5;entryY=0;entryDx=0;entryDy=0;" edge="1" parent="1" target="cn0XzDHTwLfW3axUnCjo-97">
          <mxGeometry relative="1" as="geometry">
            <mxPoint x="1137" y="506.25" as="sourcePoint" />
            <mxPoint x="1137" y="531.25" as="targetPoint" />
          </mxGeometry>
        </mxCell>
        <mxCell id="cn0XzDHTwLfW3axUnCjo-101" value="Самовывоз" style="shape=ext;rounded=1;html=1;whiteSpace=wrap;" vertex="1" parent="1">
          <mxGeometry x="832.5" y="596.25" width="70" height="20" as="geometry" />
        </mxCell>
        <mxCell id="cn0XzDHTwLfW3axUnCjo-113" style="edgeStyle=orthogonalEdgeStyle;rounded=0;orthogonalLoop=1;jettySize=auto;html=1;exitX=0.5;exitY=1;exitDx=0;exitDy=0;" edge="1" parent="1" source="cn0XzDHTwLfW3axUnCjo-105">
          <mxGeometry relative="1" as="geometry">
            <mxPoint x="942.5" y="652.25" as="targetPoint" />
          </mxGeometry>
        </mxCell>
        <mxCell id="cn0XzDHTwLfW3axUnCjo-105" value="Курьер" style="shape=ext;rounded=1;html=1;whiteSpace=wrap;" vertex="1" parent="1">
          <mxGeometry x="947.5" y="596.25" width="50" height="20" as="geometry" />
        </mxCell>
        <mxCell id="cn0XzDHTwLfW3axUnCjo-110" value="" style="rhombus;whiteSpace=wrap;html=1;" vertex="1" parent="1">
          <mxGeometry x="902.5" y="636.25" width="50" height="50" as="geometry" />
        </mxCell>
        <mxCell id="cn0XzDHTwLfW3axUnCjo-111" value="" style="endArrow=none;html=1;rounded=0;entryX=1;entryY=0;entryDx=0;entryDy=0;exitX=0;exitY=1;exitDx=0;exitDy=0;strokeWidth=5;elbow=vertical;" edge="1" source="cn0XzDHTwLfW3axUnCjo-110" target="cn0XzDHTwLfW3axUnCjo-110" parent="1">
          <mxGeometry width="50" height="50" relative="1" as="geometry">
            <mxPoint x="892.5" y="681.25" as="sourcePoint" />
            <mxPoint x="922.5" y="651.25" as="targetPoint" />
          </mxGeometry>
        </mxCell>
        <mxCell id="cn0XzDHTwLfW3axUnCjo-112" value="" style="endArrow=none;html=1;rounded=0;entryX=1;entryY=0;entryDx=0;entryDy=0;exitX=0;exitY=1;exitDx=0;exitDy=0;strokeWidth=5;" edge="1" parent="1">
          <mxGeometry width="50" height="50" relative="1" as="geometry">
            <mxPoint x="915" y="648.75" as="sourcePoint" />
            <mxPoint x="940" y="673.75" as="targetPoint" />
          </mxGeometry>
        </mxCell>
        <mxCell id="cn0XzDHTwLfW3axUnCjo-114" style="edgeStyle=orthogonalEdgeStyle;rounded=0;orthogonalLoop=1;jettySize=auto;html=1;exitX=0.5;exitY=1;exitDx=0;exitDy=0;entryX=0.1;entryY=0.32;entryDx=0;entryDy=0;entryPerimeter=0;" edge="1" parent="1" source="cn0XzDHTwLfW3axUnCjo-101" target="cn0XzDHTwLfW3axUnCjo-110">
          <mxGeometry relative="1" as="geometry" />
        </mxCell>
        <mxCell id="cn0XzDHTwLfW3axUnCjo-123" style="edgeStyle=orthogonalEdgeStyle;rounded=0;orthogonalLoop=1;jettySize=auto;html=1;exitX=0.5;exitY=1;exitDx=0;exitDy=0;entryX=0;entryY=0;entryDx=0;entryDy=0;" edge="1" parent="1" source="cn0XzDHTwLfW3axUnCjo-115" target="cn0XzDHTwLfW3axUnCjo-120">
          <mxGeometry relative="1" as="geometry" />
        </mxCell>
        <mxCell id="cn0XzDHTwLfW3axUnCjo-115" value="При получении" style="shape=ext;rounded=1;html=1;whiteSpace=wrap;" vertex="1" parent="1">
          <mxGeometry x="1027.5" y="596.25" width="100" height="20" as="geometry" />
        </mxCell>
        <mxCell id="cn0XzDHTwLfW3axUnCjo-124" style="edgeStyle=orthogonalEdgeStyle;rounded=0;orthogonalLoop=1;jettySize=auto;html=1;exitX=0.5;exitY=1;exitDx=0;exitDy=0;" edge="1" parent="1" source="cn0XzDHTwLfW3axUnCjo-116">
          <mxGeometry relative="1" as="geometry">
            <mxPoint x="1147.5" y="656.25" as="targetPoint" />
          </mxGeometry>
        </mxCell>
        <mxCell id="cn0XzDHTwLfW3axUnCjo-116" value="Онлайн" style="shape=ext;rounded=1;html=1;whiteSpace=wrap;" vertex="1" parent="1">
          <mxGeometry x="1147.5" y="596.25" width="70" height="20" as="geometry" />
        </mxCell>
        <mxCell id="cn0XzDHTwLfW3axUnCjo-120" value="" style="rhombus;whiteSpace=wrap;html=1;" vertex="1" parent="1">
          <mxGeometry x="1112.5" y="646.25" width="50" height="50" as="geometry" />
        </mxCell>
        <mxCell id="cn0XzDHTwLfW3axUnCjo-121" value="" style="endArrow=none;html=1;rounded=0;entryX=1;entryY=0;entryDx=0;entryDy=0;exitX=0;exitY=1;exitDx=0;exitDy=0;strokeWidth=5;elbow=vertical;" edge="1" source="cn0XzDHTwLfW3axUnCjo-120" target="cn0XzDHTwLfW3axUnCjo-120" parent="1">
          <mxGeometry width="50" height="50" relative="1" as="geometry">
            <mxPoint x="1102.5" y="691.25" as="sourcePoint" />
            <mxPoint x="1132.5" y="661.25" as="targetPoint" />
          </mxGeometry>
        </mxCell>
        <mxCell id="cn0XzDHTwLfW3axUnCjo-122" value="" style="endArrow=none;html=1;rounded=0;entryX=1;entryY=0;entryDx=0;entryDy=0;exitX=0;exitY=1;exitDx=0;exitDy=0;strokeWidth=5;" edge="1" parent="1">
          <mxGeometry width="50" height="50" relative="1" as="geometry">
            <mxPoint x="1125" y="658.75" as="sourcePoint" />
            <mxPoint x="1150" y="683.75" as="targetPoint" />
          </mxGeometry>
        </mxCell>
        <mxCell id="cn0XzDHTwLfW3axUnCjo-132" style="edgeStyle=orthogonalEdgeStyle;rounded=0;orthogonalLoop=1;jettySize=auto;html=1;exitX=0.5;exitY=1;exitDx=0;exitDy=0;entryX=0.5;entryY=0;entryDx=0;entryDy=0;" edge="1" parent="1" source="cn0XzDHTwLfW3axUnCjo-125" target="cn0XzDHTwLfW3axUnCjo-131">
          <mxGeometry relative="1" as="geometry" />
        </mxCell>
        <mxCell id="cn0XzDHTwLfW3axUnCjo-125" value="" style="shape=mxgraph.bpmn.shape;html=1;verticalLabelPosition=bottom;labelBackgroundColor=#ffffff;verticalAlign=top;perimeter=rhombusPerimeter;background=gateway;outline=none;symbol=parallelGw;" vertex="1" parent="1">
          <mxGeometry x="997.5" y="725" width="50" height="50" as="geometry" />
        </mxCell>
        <mxCell id="cn0XzDHTwLfW3axUnCjo-127" style="edgeStyle=orthogonalEdgeStyle;rounded=0;orthogonalLoop=1;jettySize=auto;html=1;exitX=0.5;exitY=1;exitDx=0;exitDy=0;entryX=0.75;entryY=0.25;entryDx=0;entryDy=0;entryPerimeter=0;" edge="1" parent="1" source="cn0XzDHTwLfW3axUnCjo-120" target="cn0XzDHTwLfW3axUnCjo-125">
          <mxGeometry relative="1" as="geometry">
            <Array as="points">
              <mxPoint x="1137.5" y="705" />
              <mxPoint x="1035.5" y="705" />
            </Array>
          </mxGeometry>
        </mxCell>
        <mxCell id="cn0XzDHTwLfW3axUnCjo-130" style="edgeStyle=orthogonalEdgeStyle;rounded=0;orthogonalLoop=1;jettySize=auto;html=1;exitX=0.5;exitY=1;exitDx=0;exitDy=0;entryX=0.25;entryY=0.25;entryDx=0;entryDy=0;entryPerimeter=0;" edge="1" parent="1" source="cn0XzDHTwLfW3axUnCjo-110" target="cn0XzDHTwLfW3axUnCjo-125">
          <mxGeometry relative="1" as="geometry">
            <Array as="points">
              <mxPoint x="927.5" y="705" />
              <mxPoint x="1010.5" y="705" />
            </Array>
          </mxGeometry>
        </mxCell>
        <mxCell id="cn0XzDHTwLfW3axUnCjo-131" value="" style="shape=mxgraph.bpmn.shape;html=1;verticalLabelPosition=bottom;labelBackgroundColor=#ffffff;verticalAlign=top;perimeter=ellipsePerimeter;outline=standard;symbol=general;fillColor=#f8cecc;strokeColor=#b85450;" vertex="1" parent="1">
          <mxGeometry x="997.5" y="815" width="50" height="50" as="geometry" />
        </mxCell>
        <mxCell id="cn0XzDHTwLfW3axUnCjo-133" value="Товар заказан" style="text;html=1;align=center;verticalAlign=middle;whiteSpace=wrap;rounded=0;" vertex="1" parent="1">
          <mxGeometry x="992.5" y="875" width="60" height="30" as="geometry" />
        </mxCell>
      </root>
    </mxGraphModel>
  </diagram>
</mxfile>
